# xmcd
#
# Track frame offsets: 
#        150
#        17307
#        43267
#        71713
#        92948
#        107220
#        131410
#        163353
#        182189
#        205403
#        222183
#        255805
#
# Disc length: 3662 seconds
#
# Revision: 1
# Processed by: cddbd v1.5.2PL0 Copyright (c) Steve Scherf et al.
# Submitted via: ExactAudioCopy v0.95b2
#
DISCID=ad0e4c0c
DTITLE=Bob Dylan - Bootleg Series, Vol. 8 - Tell Tale Signs [CD3]
DYEAR=2008
DGENRE=Rock
TTITLE0=Duncan and Brady
TTITLE1=Cold Irons Bound (live at Bonnaroo, Manchester, TN 06-11-04)
TTITLE2=Mississippi (1997) (alt 3)
TTITLE3=Most of the Time (alt 2)
TTITLE4=Ring Them Bells (alt)
TTITLE5=Things Have Changed (live in Portland, OR 06-15-00)
TTITLE6=Red River Shore (version 2)
TTITLE7=Born in Time (1989) (alt 2)
TTITLE8=Tryin' To Get To Heaven (live in London 10-05-00)
TTITLE9=Marchin' To The City (version 2)
TTITLE10=Can't Wait (alt 2)
TTITLE11=Mary And The Soldier
EXTD=
EXTT0=
EXTT1=
EXTT2=
EXTT3=
EXTT4=
EXTT5=
EXTT6=
EXTT7=
EXTT8=
EXTT9=
EXTT10=
EXTT11=
PLAYORDER=
